<svg xmlns="http://www.w3.org/2000/svg" width="1024" height="1024" viewBox="0 0 1024 1024">
  <rect width="1024" height="1024" fill="#f8f5ec"/>
  <g transform="matrix(1.92 0 0 1.92 32 224)">
    <path fill="#000000" d="M300 100h-62.135c-12.924.042-17.702 1.431-22.518 4.007-4.889 2.615-8.725 6.451-11.34 11.34-2.615 4.89-4.007 9.738-4.007 23.111V200h61.542c13.373 0 18.222-1.392 23.11-4.007 4.89-2.615 8.726-6.451 11.341-11.34 2.615-4.89 4.007-9.738 4.007-23.111V100zm100 84.625c0 40.119-4.177 54.666-12.021 69.333-7.844 14.667-19.354 26.177-34.02 34.021C339.29 295.823 324.743 300 284.624 300H38.458c-13.373 0-18.222-1.392-23.11-4.007-4.89-2.615-8.726-6.451-11.341-11.34-2.576-4.816-3.965-9.594-4.006-22.518L0 200h100v-84.625c0-40.119 4.177-54.666 12.021-69.333 7.844-14.667 19.354-26.177 34.02-34.021C160.71 4.177 175.257 0 215.376 0h246.167c13.373 0 18.222 1.392 23.11 4.007 4.89 2.615 8.726 6.451 11.341 11.34 2.615 4.89 4.007 9.738 4.007 23.111V100H400v84.625z"/>
  </g>
</svg>
